<?xml version="1.0" standalone="no"?>
<!DOCTYPE svg PUBLIC "-//W3C//DTD SVG 20010904//EN"
 "http://www.w3.org/TR/2001/REC-SVG-20010904/DTD/svg10.dtd">
<svg version="1.0" xmlns="http://www.w3.org/2000/svg"
 width="100.000000pt" height="102.000000pt" viewBox="0 0 100.000000 102.000000"
 preserveAspectRatio="xMidYMid meet">
<metadata>
Created by potrace 1.14, written by Peter Selinger 2001-2017
</metadata>
<g transform="translate(0.000000,102.000000) scale(0.100000,-0.100000)"
fill="#000000" stroke="none">
<path d="M390 916 c-118 -34 -211 -113 -263 -224 -30 -62 -32 -75 -32 -172 0
-98 2 -110 32 -170 80 -163 260 -260 429 -231 81 15 127 34 190 81 98 73 156
195 155 323 -1 167 -84 298 -237 369 -77 36 -198 47 -274 24z m198 -294 l173
-100 -143 -82 c-79 -46 -162 -94 -185 -107 l-43 -25 0 46 0 46 -40 -20 c-21
-11 -41 -20 -42 -20 -2 0 0 305 2 328 0 1 18 -9 40 -23 l40 -25 0 46 c0 33 4
45 13 41 6 -3 90 -50 185 -105z"/>
<path d="M432 644 c2 -24 16 -36 81 -74 42 -24 77 -47 77 -50 0 -3 -36 -25
-80 -49 -66 -36 -80 -49 -80 -69 0 -13 4 -22 9 -20 23 8 241 134 241 139 0 3
-37 26 -82 52 -46 26 -102 59 -126 73 l-44 26 4 -28z"/>
</g>
</svg>
